<?xml version="1.0" encoding="utf-8" standalone="no"?>
<!DOCTYPE svg PUBLIC "-//W3C//DTD SVG 1.1//EN"
  "http://www.w3.org/Graphics/SVG/1.1/DTD/svg11.dtd">
<svg xmlns:xlink="http://www.w3.org/1999/xlink" width="189.198512pt" height="71.15904pt" viewBox="0 0 189.198512 71.15904" xmlns="http://www.w3.org/2000/svg" version="1.1">
 <metadata>
  <rdf:RDF xmlns:dc="http://purl.org/dc/elements/1.1/" xmlns:cc="http://creativecommons.org/ns#" xmlns:rdf="http://www.w3.org/1999/02/22-rdf-syntax-ns#">
   <cc:Work>
    <dc:type rdf:resource="http://purl.org/dc/dcmitype/StillImage"/>
    <dc:date>2026-10-06T20:48:48.373966</dc:date>
    <dc:format>image/svg+xml</dc:format>
    <dc:creator>
     <cc:Agent>
      <dc:title>Matplotlib v3.10.1, https://matplotlib.org/</dc:title>
     </cc:Agent>
    </dc:creator>
   </cc:Work>
  </rdf:RDF>
 </metadata>
 <defs>
  <style type="text/css">*{stroke-linejoin: round; stroke-linecap: butt}</style>
 </defs>
 <g id="figure_1">
  <g id="patch_1">
   <path d="M 0 71.15904 
L 189.198512 71.15904 
L 189.198512 0 
L 0 0 
L 0 71.15904 
z
" style="fill: none"/>
  </g>
  <g id="text_1">
   <!-- $\left.{}-\varepsilon\sum_{i,j}P_{ij}\log P_{ij}\right]$ -->
   <g style="fill: #1a1d21" transform="translate(2.307299 34.187187) scale(0.26 -0.26)">
    <defs>
     <path id="Cmsy10-a1" d="M 653 1472 
Q 600 1472 565 1512 
Q 531 1553 531 1600 
Q 531 1647 565 1687 
Q 600 1728 653 1728 
L 4325 1728 
Q 4375 1728 4408 1687 
Q 4441 1647 4441 1600 
Q 4441 1553 4408 1512 
Q 4375 1472 4325 1472 
L 653 1472 
z
" transform="scale(0.015625)"/>
     <path id="Cmmi10-22" d="M 172 666 
Q 172 841 248 1006 
Q 325 1172 448 1303 
Q 572 1434 738 1538 
Q 494 1706 494 1972 
Q 494 2256 731 2470 
Q 969 2684 1312 2792 
Q 1656 2900 1931 2900 
Q 2047 2900 2242 2848 
Q 2438 2797 2584 2712 
Q 2731 2628 2731 2528 
Q 2731 2453 2673 2395 
Q 2616 2338 2547 2338 
Q 2519 2338 2405 2405 
Q 2291 2472 2162 2525 
Q 2034 2578 1881 2578 
Q 1650 2578 1373 2523 
Q 1097 2469 887 2333 
Q 678 2197 678 1978 
Q 678 1769 916 1625 
Q 1184 1747 1466 1747 
Q 1966 1747 1966 1569 
Q 1966 1428 1795 1389 
Q 1625 1350 1403 1350 
Q 1103 1350 909 1441 
Q 697 1328 531 1125 
Q 366 922 366 703 
Q 366 497 505 381 
Q 644 266 847 222 
Q 1050 178 1253 178 
Q 1606 178 1878 254 
Q 2150 331 2272 575 
Q 2291 616 2344 616 
Q 2413 594 2413 531 
Q 2413 525 2394 469 
Q 2291 266 2102 128 
Q 1913 -9 1680 -75 
Q 1447 -141 1203 -141 
Q 806 -141 489 71 
Q 172 284 172 666 
z
M 1159 1538 
Q 1272 1516 1416 1516 
Q 1697 1516 1766 1556 
Q 1678 1581 1459 1581 
Q 1300 1581 1159 1538 
z
" transform="scale(0.015625)"/>
     <path id="Cmex10-58" d="M 422 -8959 
Q 359 -8959 359 -8891 
Q 359 -8863 378 -8844 
L 3756 -4909 
L 378 -281 
Q 359 -263 359 -250 
L 359 -56 
Q 359 -34 379 -17 
Q 400 0 422 0 
L 8103 0 
L 8878 -1797 
L 8691 -1797 
Q 8394 -1116 7697 -787 
Q 7000 -459 6242 -382 
Q 5484 -306 4481 -306 
L 1522 -306 
L 4544 -4434 
Q 4556 -4459 4556 -4481 
Q 4556 -4500 4544 -4525 
L 1222 -8391 
L 4544 -8391 
Q 5528 -8391 6289 -8314 
Q 7050 -8238 7739 -7908 
Q 8428 -7578 8691 -6900 
L 8878 -6900 
L 8103 -8959 
L 422 -8959 
z
" transform="scale(0.015625)"/>
     <path id="Cmmi10-69" d="M 500 459 
Q 500 578 550 709 
L 1069 2088 
Q 1153 2322 1153 2472 
Q 1153 2663 1013 2663 
Q 759 2663 595 2402 
Q 431 2141 353 1819 
Q 341 1778 300 1778 
L 225 1778 
Q 172 1778 172 1838 
L 172 1856 
Q 275 2238 487 2533 
Q 700 2828 1025 2828 
Q 1253 2828 1411 2678 
Q 1569 2528 1569 2297 
Q 1569 2178 1516 2047 
L 997 672 
Q 909 459 909 288 
Q 909 97 1056 97 
Q 1306 97 1473 364 
Q 1641 631 1709 941 
Q 1722 978 1759 978 
L 1838 978 
Q 1863 978 1878 961 
Q 1894 944 1894 922 
Q 1894 916 1888 903 
Q 1800 541 1583 234 
Q 1366 -72 1044 -72 
Q 819 -72 659 83 
Q 500 238 500 459 
z
M 1222 3878 
Q 1222 4013 1334 4122 
Q 1447 4231 1581 4231 
Q 1691 4231 1761 4164 
Q 1831 4097 1831 3994 
Q 1831 3850 1717 3742 
Q 1603 3634 1466 3634 
Q 1363 3634 1292 3704 
Q 1222 3775 1222 3878 
z
" transform="scale(0.015625)"/>
     <path id="Cmmi10-3b" d="M 634 -1153 
Q 634 -1125 659 -1100 
Q 891 -878 1019 -587 
Q 1147 -297 1147 25 
L 1147 103 
Q 1044 0 891 0 
Q 744 0 641 103 
Q 538 206 538 353 
Q 538 503 641 603 
Q 744 703 891 703 
Q 1119 703 1216 492 
Q 1313 281 1313 25 
Q 1313 -331 1170 -651 
Q 1028 -972 769 -1228 
Q 744 -1241 728 -1241 
Q 697 -1241 665 -1212 
Q 634 -1184 634 -1153 
z
" transform="scale(0.015625)"/>
     <path id="Cmmi10-6a" d="M -84 -909 
Q -84 -753 23 -639 
Q 131 -525 288 -525 
Q 391 -525 461 -589 
Q 531 -653 531 -756 
Q 531 -878 454 -976 
Q 378 -1075 263 -1106 
Q 375 -1147 488 -1147 
Q 759 -1147 959 -895 
Q 1159 -644 1241 -331 
L 1844 2075 
Q 1888 2259 1888 2388 
Q 1888 2663 1697 2663 
Q 1416 2663 1205 2408 
Q 994 2153 863 1819 
Q 850 1778 813 1778 
L 738 1778 
Q 684 1778 684 1838 
L 684 1856 
Q 828 2241 1093 2534 
Q 1359 2828 1709 2828 
Q 1975 2828 2145 2662 
Q 2316 2497 2316 2241 
Q 2316 2150 2297 2059 
L 1691 -372 
Q 1625 -631 1440 -847 
Q 1256 -1063 1000 -1188 
Q 744 -1313 475 -1313 
Q 259 -1313 87 -1209 
Q -84 -1106 -84 -909 
z
M 1941 3878 
Q 1941 4019 2050 4125 
Q 2159 4231 2297 4231 
Q 2406 4231 2476 4164 
Q 2547 4097 2547 3994 
Q 2547 3850 2433 3742 
Q 2319 3634 2181 3634 
Q 2078 3634 2009 3706 
Q 1941 3778 1941 3878 
z
" transform="scale(0.015625)"/>
     <path id="Cmmi10-50" d="M 313 0 
Q 250 0 250 84 
Q 253 100 262 139 
Q 272 178 289 201 
Q 306 225 331 225 
Q 722 225 878 269 
Q 959 297 997 441 
L 1875 3956 
Q 1888 4019 1888 4044 
Q 1888 4113 1813 4122 
Q 1691 4147 1350 4147 
Q 1288 4147 1288 4231 
Q 1291 4247 1300 4286 
Q 1309 4325 1326 4348 
Q 1344 4372 1369 4372 
L 3578 4372 
Q 3881 4372 4165 4264 
Q 4450 4156 4631 3934 
Q 4813 3713 4813 3397 
Q 4813 2991 4527 2672 
Q 4241 2353 3814 2175 
Q 3388 1997 2988 1997 
L 1947 1997 
L 1556 416 
Q 1544 353 1544 325 
Q 1544 300 1551 283 
Q 1559 266 1573 261 
Q 1588 256 1619 250 
Q 1741 225 2081 225 
Q 2144 225 2144 141 
Q 2122 50 2109 25 
Q 2097 0 2034 0 
L 313 0 
z
M 1978 2188 
L 2875 2188 
Q 3497 2188 3822 2522 
Q 3988 2688 4092 3000 
Q 4197 3313 4197 3566 
Q 4197 3881 3956 4014 
Q 3716 4147 3359 4147 
L 2747 4147 
Q 2572 4147 2515 4117 
Q 2459 4088 2413 3928 
L 1978 2188 
z
" transform="scale(0.015625)"/>
     <path id="Cmr10-6c" d="M 197 0 
L 197 225 
Q 416 225 556 259 
Q 697 294 697 428 
L 697 3788 
Q 697 3959 645 4036 
Q 594 4113 497 4130 
Q 400 4147 197 4147 
L 197 4372 
L 1147 4441 
L 1147 428 
Q 1147 294 1287 259 
Q 1428 225 1644 225 
L 1644 0 
L 197 0 
z
" transform="scale(0.015625)"/>
     <path id="Cmr10-6f" d="M 1600 -72 
Q 1216 -72 887 123 
Q 559 319 368 647 
Q 178 975 178 1363 
Q 178 1656 283 1928 
Q 388 2200 583 2414 
Q 778 2628 1037 2748 
Q 1297 2869 1600 2869 
Q 1994 2869 2317 2661 
Q 2641 2453 2828 2104 
Q 3016 1756 3016 1363 
Q 3016 978 2825 648 
Q 2634 319 2307 123 
Q 1981 -72 1600 -72 
z
M 1600 116 
Q 2113 116 2284 487 
Q 2456 859 2456 1434 
Q 2456 1756 2422 1967 
Q 2388 2178 2272 2350 
Q 2200 2456 2089 2536 
Q 1978 2616 1854 2658 
Q 1731 2700 1600 2700 
Q 1400 2700 1220 2609 
Q 1041 2519 922 2350 
Q 803 2169 770 1951 
Q 738 1734 738 1434 
Q 738 1075 800 789 
Q 863 503 1052 309 
Q 1241 116 1600 116 
z
" transform="scale(0.015625)"/>
     <path id="Cmr10-67" d="M 178 -500 
Q 178 -272 343 -101 
Q 509 69 738 141 
Q 609 238 542 384 
Q 475 531 475 697 
Q 475 997 666 1228 
Q 372 1516 372 1888 
Q 372 2088 458 2263 
Q 544 2438 697 2566 
Q 850 2694 1037 2761 
Q 1225 2828 1422 2828 
Q 1803 2828 2106 2606 
Q 2238 2747 2417 2823 
Q 2597 2900 2791 2900 
Q 2928 2900 3015 2801 
Q 3103 2703 3103 2566 
Q 3103 2488 3043 2428 
Q 2984 2369 2906 2369 
Q 2825 2369 2765 2428 
Q 2706 2488 2706 2566 
Q 2706 2684 2784 2731 
Q 2453 2731 2216 2503 
Q 2331 2388 2401 2220 
Q 2472 2053 2472 1888 
Q 2472 1616 2322 1398 
Q 2172 1181 1926 1061 
Q 1681 941 1422 941 
Q 1072 941 781 1131 
Q 691 1006 691 850 
Q 691 681 802 554 
Q 913 428 1081 428 
L 1606 428 
Q 1988 428 2294 359 
Q 2600 291 2808 84 
Q 3016 -122 3016 -500 
Q 3016 -781 2778 -967 
Q 2541 -1153 2211 -1236 
Q 1881 -1319 1600 -1319 
Q 1316 -1319 984 -1236 
Q 653 -1153 415 -967 
Q 178 -781 178 -500 
z
M 538 -500 
Q 538 -716 713 -861 
Q 888 -1006 1134 -1076 
Q 1381 -1147 1600 -1147 
Q 1816 -1147 2062 -1076 
Q 2309 -1006 2482 -861 
Q 2656 -716 2656 -500 
Q 2656 -166 2350 -67 
Q 2044 31 1606 31 
L 1081 31 
Q 934 31 811 -39 
Q 688 -109 613 -236 
Q 538 -363 538 -500 
z
M 1422 1113 
Q 1966 1113 1966 1888 
Q 1966 2222 1850 2439 
Q 1734 2656 1422 2656 
Q 1109 2656 993 2439 
Q 878 2222 878 1888 
Q 878 1675 922 1503 
Q 966 1331 1084 1222 
Q 1203 1113 1422 1113 
z
" transform="scale(0.015625)"/>
     <path id="Cmex10-23" d="M 56 -18938 
L 56 -18522 
L 1563 -18522 
L 1563 -159 
L 56 -159 
L 56 256 
L 1978 256 
L 1978 -18938 
L 56 -18938 
z
" transform="scale(0.015625)"/>
    </defs>
    <use xlink:href="#Cmsy10-a1" transform="translate(17.558594 0.674479)"/>
    <use xlink:href="#Cmmi10-22" transform="translate(112.802734 0.674479)"/>
    <use xlink:href="#Cmex10-58" transform="translate(159.384766 104)"/>
    <use xlink:href="#Cmmi10-69" transform="translate(183.384766 -101.010938) scale(0.7)"/>
    <use xlink:href="#Cmmi10-3b" transform="translate(207.481445 -101.010938) scale(0.7)"/>
    <use xlink:href="#Cmmi10-6a" transform="translate(239.152344 -101.010938) scale(0.7)"/>
    <use xlink:href="#Cmmi10-50" transform="translate(292.478516 0.674479)"/>
    <use xlink:href="#Cmmi10-69" transform="translate(356.6875 -16.331771) scale(0.7)"/>
    <use xlink:href="#Cmmi10-6a" transform="translate(380.78418 -16.331771) scale(0.7)"/>
    <use xlink:href="#Cmr10-6c" transform="translate(415.94082 0.674479)"/>
    <use xlink:href="#Cmr10-6f" transform="translate(443.626367 0.674479)"/>
    <use xlink:href="#Cmr10-67" transform="translate(493.626367 0.674479)"/>
    <use xlink:href="#Cmmi10-50" transform="translate(558.258821 0.674479)"/>
    <use xlink:href="#Cmmi10-69" transform="translate(622.467806 -16.331771) scale(0.7)"/>
    <use xlink:href="#Cmmi10-6a" transform="translate(646.564485 -16.331771) scale(0.7)"/>
    <use xlink:href="#Cmex10-23" transform="translate(681.721126 101.05) scale(0.731468)"/>
   </g>
  </g>
 </g>
</svg>
